<svg width="15" height="17" viewBox="0 0 15 17" fill="none" xmlns="http://www.w3.org/2000/svg">
<g clip-path="url(#clip0_99_71)">
<path d="M7.70818 4.76508C5.65551 4.76508 3.99983 6.43112 3.99983 8.49661C3.99983 10.5621 5.65551 12.2281 7.70818 12.2281C9.76084 12.2281 11.4165 10.5621 11.4165 8.49661C11.4165 6.43112 9.76084 4.76508 7.70818 4.76508ZM7.70818 10.9226C6.38169 10.9226 5.29727 9.83463 5.29727 8.49661C5.29727 7.15859 6.37847 6.07063 7.70818 6.07063C9.03789 6.07063 10.1191 7.15859 10.1191 8.49661C10.1191 9.83463 9.03466 10.9226 7.70818 10.9226ZM12.4332 4.61244C12.4332 5.09634 12.0459 5.48281 11.5682 5.48281C11.0873 5.48281 10.7033 5.09309 10.7033 4.61244C10.7033 4.1318 11.0906 3.74208 11.5682 3.74208C12.0459 3.74208 12.4332 4.1318 12.4332 4.61244ZM14.8893 5.4958C14.8344 4.3299 14.5698 3.29715 13.7209 2.44627C12.8753 1.5954 11.849 1.32909 10.6904 1.27063C9.49619 1.20243 5.91694 1.20243 4.72278 1.27063C3.56735 1.32584 2.54102 1.59215 1.6922 2.44303C0.843373 3.29391 0.581949 4.32665 0.523855 5.49255C0.456078 6.69418 0.456078 10.2958 0.523855 11.4974C0.578722 12.6633 0.843373 13.6961 1.6922 14.5469C2.54102 15.3978 3.56412 15.6641 4.72278 15.7226C5.91694 15.7908 9.49619 15.7908 10.6904 15.7226C11.849 15.6674 12.8753 15.4011 13.7209 14.5469C14.5665 13.6961 14.8312 12.6633 14.8893 11.4974C14.9571 10.2958 14.9571 6.69742 14.8893 5.4958ZM13.3465 12.7867C13.0948 13.4233 12.6075 13.9137 11.9717 14.1702C11.0196 14.5502 8.76033 14.4625 7.70818 14.4625C6.65603 14.4625 4.39358 14.5469 3.44471 14.1702C2.81212 13.9169 2.32478 13.4265 2.06981 12.7867C1.6922 11.8287 1.77934 9.55534 1.77934 8.49661C1.77934 7.43788 1.69542 5.16129 2.06981 4.20649C2.32155 3.56996 2.8089 3.07956 3.44471 2.823C4.39681 2.44303 6.65603 2.53071 7.70818 2.53071C8.76033 2.53071 11.0228 2.44627 11.9717 2.823C12.6042 3.07632 13.0916 3.56671 13.3465 4.20649C13.7242 5.16454 13.637 7.43788 13.637 8.49661C13.637 9.55534 13.7242 11.8319 13.3465 12.7867Z" fill="#F8F8F8"/>
</g>
<defs>
<clipPath id="clip0_99_71">
<rect width="14.459" height="16.6279" fill="white" transform="translate(0.475403 0.186035)"/>
</clipPath>
</defs>
</svg>
