<svg width="17" height="17" viewBox="0 0 17 17" fill="none" xmlns="http://www.w3.org/2000/svg">
<g clip-path="url(#clip0_99_73)">
<path d="M14.6216 14.1578H12.2426V10.4299C12.2426 9.54099 12.2245 8.39698 11.0028 8.39698C9.76245 8.39698 9.57301 9.36427 9.57301 10.3643V14.1578H7.19397V6.49187H9.47929V7.53681H9.51009C9.82939 6.93435 10.6059 6.29842 11.766 6.29842C14.1765 6.29842 14.6223 7.88489 14.6223 9.94999L14.6216 14.1578ZM4.507 5.44293C3.74121 5.44293 3.12603 4.82306 3.12603 4.06062C3.12603 3.29884 3.74188 2.67965 4.507 2.67965C5.27011 2.67965 5.88864 3.29884 5.88864 4.06062C5.88864 4.82306 5.26944 5.44293 4.507 5.44293ZM5.69987 14.1578H3.31413V6.49187H5.69987V14.1578ZM15.8118 0.467285H2.11992C1.46458 0.467285 0.934418 0.9854 0.934418 1.62468V15.3755C0.934418 16.0154 1.46458 16.5329 2.11992 16.5329H15.8098C16.4645 16.5329 17 16.0154 17 15.3755V1.62468C17 0.9854 16.4645 0.467285 15.8098 0.467285H15.8118Z" fill="white"/>
</g>
<defs>
<clipPath id="clip0_99_73">
<rect width="16.0656" height="16.0656" fill="white" transform="translate(0.934418 0.467285)"/>
</clipPath>
</defs>
</svg>
