<svg width="20" height="21" viewBox="0 0 20 21" fill="none" xmlns="http://www.w3.org/2000/svg">
<g clip-path="url(#clip0_99_65)">
<path d="M5.92943 4.09773C4.34858 4.09773 2.97096 5.12592 2.01666 6.59833C0.940268 8.2571 0.37476 10.4059 0.37476 12.4671C0.37476 13.0342 0.430989 13.5668 0.543448 14.052C0.598662 14.2868 0.669783 14.5176 0.756317 14.7428C0.839187 14.9542 0.938844 15.1586 1.05433 15.3541C1.61342 16.2851 2.51469 16.902 3.94051 16.902C5.14302 16.902 6.05555 16.363 7.12551 14.9388C7.73601 14.1259 8.04446 13.6326 9.26464 11.4686L9.87192 10.393L10.0213 10.132C10.0703 10.2123 10.1185 10.2894 10.1683 10.3729L11.897 13.2607C12.4786 14.2327 13.2344 15.3139 13.8811 15.9228C14.7213 16.7156 15.4812 16.9028 16.3391 16.9028C17.2026 16.9028 17.8461 16.6176 18.3112 16.2256C18.5709 16.0039 18.7909 15.7396 18.9618 15.444C19.3972 14.6898 19.6534 13.7355 19.6534 12.4358C19.6534 10.2508 19.1064 8.1326 17.9794 6.45133C16.9496 4.91547 15.6041 4.09773 14.1912 4.09773C13.3501 4.09773 12.5139 4.47286 11.7387 5.14842C11.215 5.60628 10.729 6.18465 10.2768 6.79514C9.72251 6.09227 9.2044 5.55246 8.70396 5.1436C7.75448 4.36763 6.84437 4.09692 5.92943 4.09692V4.09773ZM14.0907 5.74686C15.0121 5.74686 15.8483 6.35574 16.4942 7.35261C17.4035 8.75674 17.8172 10.7224 17.8172 12.4936C17.8172 13.7371 17.5215 14.8231 16.3399 14.8231C15.874 14.8231 15.515 14.6384 15.0033 14.0166C14.6048 13.5338 13.9245 12.5081 12.7284 10.5159L12.2328 9.69015C11.9106 9.15131 11.5745 8.62096 11.2246 8.09966C11.2809 8.0121 11.3379 7.91973 11.3941 7.83699C12.2938 6.49792 13.0947 5.74686 14.0907 5.74686ZM5.8965 6.19107C6.91264 6.19107 7.54964 6.82646 8.04527 7.35261C8.29187 7.61528 8.63728 8.05227 9.03651 8.62099L8.21717 9.87892C7.60909 10.8131 6.7054 12.3024 5.93827 13.3635C4.98156 14.6882 4.48433 14.8231 3.94132 14.8231C3.5204 14.8231 3.10751 14.6327 2.83038 14.1853C2.61912 13.8431 2.45766 13.2776 2.45766 12.5418C2.45766 10.7577 2.96373 8.89892 3.7911 7.65143C4.15579 7.09958 4.56546 6.66661 5.02253 6.42001C5.28996 6.2714 5.59056 6.19265 5.8965 6.19107Z" fill="#F8F8F8"/>
</g>
<defs>
<clipPath id="clip0_99_65">
<rect width="19.2787" height="19.2787" fill="white" transform="translate(0.37476 0.860596)"/>
</clipPath>
</defs>
</svg>
