<svg width="417" height="431" viewBox="0 0 417 431" fill="none" xmlns="http://www.w3.org/2000/svg">
<g clip-path="url(#clip0_584_1908)">
<path d="M208.32 6.71997C93.24 6.71997 0 99.96 0 215.04C0 330.12 93.24 423.36 208.32 423.36C323.4 423.36 416.64 330.12 416.64 215.04C416.64 99.96 323.4 6.71997 208.32 6.71997ZM310.632 149.436L276.444 310.548C273.924 321.972 267.12 324.744 257.628 319.368L205.548 280.98L180.432 305.172C177.66 307.944 175.308 310.296 169.932 310.296L173.628 257.292L270.144 170.1C274.344 166.404 269.22 164.304 263.676 168L144.396 243.096L92.988 227.052C81.816 223.524 81.564 215.88 95.34 210.504L296.184 133.056C305.508 129.696 313.656 135.324 310.632 149.436Z" fill="white"/>
</g>
<defs>
<clipPath id="clip0_584_1908">
<rect width="416.64" height="430.08" fill="white"/>
</clipPath>
</defs>
</svg>
