<svg width="17" height="17" viewBox="0 0 17 17" fill="none" xmlns="http://www.w3.org/2000/svg">
<path d="M13.4579 4.23374C13.3572 4.18172 13.2592 4.1247 13.1643 4.06288C12.8882 3.88037 12.6351 3.66531 12.4104 3.42234C11.8481 2.779 11.6381 2.12634 11.5608 1.66938H11.5639C11.4993 1.29009 11.526 1.04468 11.53 1.04468H8.96907V10.9474C8.96907 11.0803 8.96907 11.2117 8.96348 11.3416C8.96348 11.3577 8.96193 11.3726 8.961 11.39C8.961 11.3972 8.961 11.4046 8.95944 11.4121C8.95944 11.4139 8.95944 11.4158 8.95944 11.4177C8.93245 11.773 8.81855 12.1162 8.62777 12.4172C8.43699 12.7181 8.17518 12.9676 7.86536 13.1436C7.54246 13.3273 7.17725 13.4237 6.80576 13.4232C5.61258 13.4232 4.64554 12.4502 4.64554 11.2487C4.64554 10.0471 5.61258 9.07418 6.80576 9.07418C7.03162 9.07397 7.25609 9.10951 7.47084 9.17948L7.47395 6.57195C6.82202 6.48774 6.15972 6.53955 5.52882 6.72411C4.89792 6.90868 4.31211 7.22199 3.80836 7.64429C3.36696 8.02781 2.99587 8.48541 2.71179 8.99652C2.60369 9.1829 2.19581 9.93186 2.14642 11.1474C2.11536 11.8373 2.32256 12.5521 2.42134 12.8476V12.8538C2.48347 13.0277 2.72422 13.6214 3.11656 14.1218C3.43293 14.5232 3.80671 14.8759 4.22586 15.1684V15.1622L4.23208 15.1684C5.47185 16.0108 6.84645 15.9555 6.84645 15.9555C7.0844 15.9459 7.88151 15.9555 8.78673 15.5265C9.79072 15.0509 10.3623 14.3424 10.3623 14.3424C10.7275 13.919 11.0178 13.4365 11.2209 12.9156C11.4527 12.3064 11.53 11.5758 11.53 11.2838V6.03019C11.5611 6.04882 11.9749 6.3225 11.9749 6.3225C11.9749 6.3225 12.571 6.70459 13.501 6.95342C14.1683 7.13048 15.0673 7.16776 15.0673 7.16776V4.62546C14.7523 4.65963 14.1127 4.56022 13.4579 4.23374Z" fill="#F8F8F8"/>
</svg>
