<svg width="18" height="13" viewBox="0 0 18 13" fill="none" xmlns="http://www.w3.org/2000/svg">
<g clip-path="url(#clip0_99_69)">
<path d="M13.962 0.318848H4.07182C2.13139 0.318848 0.558365 1.95237 0.558365 3.96743V9.10161C0.558365 11.1167 2.13139 12.7502 4.07182 12.7502H13.962C15.9024 12.7502 17.4754 11.1167 17.4754 9.10161V3.96743C17.4754 1.95237 15.9024 0.318848 13.962 0.318848ZM11.5858 6.78432L6.95989 9.07547C6.83663 9.13652 6.69425 9.04319 6.69425 8.9014V4.17588C6.69425 4.03207 6.84037 3.93885 6.96389 4.00387L11.5898 6.43823C11.7274 6.51059 11.725 6.71542 11.5858 6.78432Z" fill="#F8F8F8"/>
</g>
<defs>
<clipPath id="clip0_99_69">
<rect width="16.917" height="12.3625" fill="white" transform="translate(0.558365 0.318848)"/>
</clipPath>
</defs>
</svg>
